<svg width="822" height="162" viewBox="0 0 822 162" fill="none" xmlns="http://www.w3.org/2000/svg">
<path d="M811.41 122.5C807.655 122.5 804.327 121.476 801.426 119.428C798.525 117.38 796.263 114.607 794.642 111.108C793.021 107.524 792.21 103.428 792.21 98.82V28.932C792.21 27.0546 792.807 25.5186 794.002 24.324C795.197 23.1293 796.733 22.532 798.61 22.532C800.487 22.532 802.023 23.1293 803.218 24.324C804.413 25.5186 805.01 27.0546 805.01 28.932V98.82C805.01 101.977 805.607 104.58 806.802 106.628C807.997 108.676 809.533 109.7 811.41 109.7H814.61C816.317 109.7 817.682 110.297 818.706 111.492C819.815 112.687 820.37 114.223 820.37 116.1C820.37 117.977 819.559 119.513 817.938 120.708C816.317 121.903 814.226 122.5 811.666 122.5H811.41Z" fill="#3F3F3F"/>
<path d="M711.298 152.452C709.421 152.452 707.842 151.812 706.562 150.532C705.367 149.337 704.77 147.801 704.77 145.924V87.556C704.855 80.8147 706.434 74.756 709.506 69.38C712.578 64.004 716.759 59.78 722.05 56.708C727.341 53.5507 733.314 51.972 739.97 51.972C746.711 51.972 752.727 53.5507 758.018 56.708C763.309 59.78 767.49 64.004 770.562 69.38C773.719 74.756 775.298 80.8147 775.298 87.556C775.298 94.2974 773.847 100.356 770.946 105.732C768.13 111.023 764.247 115.247 759.298 118.404C754.349 121.476 748.759 123.012 742.53 123.012C737.495 123.012 732.845 121.988 728.578 119.94C724.397 117.807 720.813 114.948 717.826 111.364V145.924C717.826 147.801 717.229 149.337 716.034 150.532C714.839 151.812 713.261 152.452 711.298 152.452ZM739.97 111.492C744.322 111.492 748.205 110.468 751.618 108.42C755.031 106.287 757.719 103.428 759.682 99.844C761.73 96.1747 762.754 92.0787 762.754 87.556C762.754 82.948 761.73 78.852 759.682 75.268C757.719 71.5987 755.031 68.74 751.618 66.692C748.205 64.5587 744.322 63.492 739.97 63.492C735.703 63.492 731.821 64.5587 728.322 66.692C724.909 68.74 722.221 71.5987 720.258 75.268C718.295 78.852 717.314 82.948 717.314 87.556C717.314 92.0787 718.295 96.1747 720.258 99.844C722.221 103.428 724.909 106.287 728.322 108.42C731.821 110.468 735.703 111.492 739.97 111.492Z" fill="#3F3F3F"/>
<path d="M677.982 124.548C675.593 124.548 673.502 123.695 671.71 121.988C670.003 120.196 669.15 118.105 669.15 115.716C669.15 113.241 670.003 111.151 671.71 109.444C673.502 107.652 675.593 106.756 677.982 106.756C680.457 106.756 682.547 107.652 684.254 109.444C685.961 111.151 686.814 113.241 686.814 115.716C686.814 118.105 685.961 120.196 684.254 121.988C682.547 123.695 680.457 124.548 677.982 124.548Z" fill="#3F3F3F"/>
<path d="M643.453 122.5C641.576 122.5 639.997 121.903 638.717 120.708C637.522 119.428 636.925 117.849 636.925 115.972V59.012C636.925 57.0494 637.522 55.4707 638.717 54.276C639.997 53.0814 641.576 52.484 643.453 52.484C645.416 52.484 646.994 53.0814 648.189 54.276C649.384 55.4707 649.981 57.0494 649.981 59.012V115.972C649.981 117.849 649.384 119.428 648.189 120.708C646.994 121.903 645.416 122.5 643.453 122.5ZM643.453 41.092C641.149 41.092 639.144 40.2814 637.437 38.66C635.816 36.9534 635.005 34.948 635.005 32.644C635.005 30.34 635.816 28.3774 637.437 26.756C639.144 25.0494 641.149 24.196 643.453 24.196C645.757 24.196 647.72 25.0494 649.341 26.756C651.048 28.3774 651.901 30.34 651.901 32.644C651.901 34.948 651.048 36.9534 649.341 38.66C647.72 40.2814 645.757 41.092 643.453 41.092Z" fill="#3F3F3F"/>
<path d="M607.531 122.628C605.654 122.628 604.075 122.031 602.795 120.836C601.6 119.556 601.003 117.977 601.003 116.1V84.612C601.003 79.748 600.107 75.78 598.315 72.708C596.523 69.636 594.091 67.3747 591.019 65.924C588.032 64.388 584.576 63.62 580.651 63.62C577.067 63.62 573.824 64.3453 570.923 65.796C568.022 67.2467 565.718 69.2093 564.011 71.684C562.304 74.0733 561.451 76.8467 561.451 80.004H553.387C553.387 74.628 554.667 69.8493 557.227 65.668C559.872 61.4013 563.456 58.0307 567.979 55.556C572.502 53.0813 577.579 51.844 583.211 51.844C589.099 51.844 594.347 53.124 598.955 55.684C603.648 58.1587 607.318 61.828 609.963 66.692C612.694 71.556 614.059 77.5293 614.059 84.612V116.1C614.059 117.977 613.419 119.556 612.139 120.836C610.944 122.031 609.408 122.628 607.531 122.628ZM554.923 122.628C553.046 122.628 551.467 122.031 550.187 120.836C548.992 119.556 548.395 117.977 548.395 116.1V59.012C548.395 57.0493 548.992 55.4707 550.187 54.276C551.467 53.0813 553.046 52.484 554.923 52.484C556.886 52.484 558.464 53.0813 559.659 54.276C560.854 55.4707 561.451 57.0493 561.451 59.012V116.1C561.451 117.977 560.854 119.556 559.659 120.836C558.464 122.031 556.886 122.628 554.923 122.628Z" fill="#3F3F3F"/>
<path d="M520.174 122.628C518.297 122.628 516.718 122.031 515.438 120.836C514.243 119.556 513.646 117.977 513.646 116.1V79.492C513.646 74.116 512.323 70.148 509.678 67.588C507.033 64.9427 503.577 63.62 499.31 63.62C494.873 63.62 491.203 65.156 488.302 68.228C485.486 71.3 484.078 75.2253 484.078 80.004H473.454C473.454 74.4573 474.649 69.5933 477.038 65.412C479.427 61.1453 482.755 57.8173 487.022 55.428C491.374 53.0387 496.323 51.844 501.87 51.844C506.734 51.844 511.043 52.9107 514.798 55.044C518.553 57.1773 521.454 60.3347 523.502 64.516C525.635 68.612 526.702 73.604 526.702 79.492V116.1C526.702 117.977 526.105 119.556 524.91 120.836C523.715 122.031 522.137 122.628 520.174 122.628ZM434.798 122.628C432.921 122.628 431.342 122.031 430.062 120.836C428.867 119.556 428.27 117.977 428.27 116.1V59.14C428.27 57.1773 428.867 55.5987 430.062 54.404C431.342 53.2093 432.921 52.612 434.798 52.612C436.761 52.612 438.339 53.2093 439.534 54.404C440.729 55.5987 441.326 57.1773 441.326 59.14V116.1C441.326 117.977 440.729 119.556 439.534 120.836C438.339 122.031 436.761 122.628 434.798 122.628ZM477.55 122.628C475.673 122.628 474.094 122.031 472.814 120.836C471.619 119.556 471.022 117.977 471.022 116.1V79.492C471.022 74.116 469.699 70.148 467.054 67.588C464.409 64.9427 460.953 63.62 456.686 63.62C452.249 63.62 448.579 65.156 445.678 68.228C442.777 71.3 441.326 75.2253 441.326 80.004H433.262C433.262 74.4573 434.371 69.5933 436.59 65.412C438.809 61.1453 441.881 57.8173 445.806 55.428C449.731 53.0387 454.211 51.844 459.246 51.844C464.11 51.844 468.419 52.9107 472.174 55.044C475.929 57.1773 478.83 60.3347 480.878 64.516C483.011 68.612 484.078 73.604 484.078 79.492V116.1C484.078 117.977 483.481 119.556 482.286 120.836C481.091 122.031 479.513 122.628 477.55 122.628Z" fill="#3F3F3F"/>
<path d="M373.639 123.012C366.727 123.012 360.626 121.519 355.335 118.532C350.044 115.46 345.863 111.279 342.791 105.988C339.804 100.612 338.311 94.468 338.311 87.556C338.311 80.5587 339.804 74.4147 342.791 69.124C345.863 63.748 350.044 59.5667 355.335 56.58C360.626 53.508 366.727 51.972 373.639 51.972C380.466 51.972 386.524 53.508 391.815 56.58C397.106 59.5667 401.244 63.748 404.231 69.124C407.303 74.4147 408.839 80.5587 408.839 87.556C408.839 94.468 407.346 100.612 404.359 105.988C401.372 111.279 397.234 115.46 391.943 118.532C386.652 121.519 380.551 123.012 373.639 123.012ZM373.639 111.492C378.076 111.492 382.002 110.468 385.415 108.42C388.828 106.372 391.474 103.556 393.351 99.972C395.314 96.388 396.295 92.2494 396.295 87.556C396.295 82.8627 395.314 78.724 393.351 75.14C391.474 71.4707 388.828 68.612 385.415 66.564C382.002 64.516 378.076 63.492 373.639 63.492C369.202 63.492 365.276 64.516 361.863 66.564C358.45 68.612 355.762 71.4707 353.799 75.14C351.836 78.724 350.855 82.8627 350.855 87.556C350.855 92.2494 351.836 96.388 353.799 99.972C355.762 103.556 358.45 106.372 361.863 108.42C365.276 110.468 369.202 111.492 373.639 111.492Z" fill="#3F3F3F"/>
<path d="M293.6 123.78C286.688 123.78 280.203 122.5 274.144 119.94C268.171 117.295 262.923 113.668 258.4 109.06C253.963 104.367 250.464 98.9053 247.904 92.676C245.429 86.4467 244.192 79.7053 244.192 72.452C244.192 65.284 245.429 58.628 247.904 52.484C250.464 46.2547 253.963 40.836 258.4 36.228C262.923 31.5347 268.171 27.8653 274.144 25.22C280.117 22.5747 286.603 21.252 293.6 21.252C300.171 21.252 305.803 22.1053 310.496 23.812C315.275 25.5187 320.053 28.3347 324.832 32.26C325.515 32.772 326.027 33.3267 326.368 33.924C326.795 34.436 327.051 34.9907 327.136 35.588C327.307 36.1 327.392 36.74 327.392 37.508C327.392 39.1293 326.795 40.4947 325.6 41.604C324.491 42.628 323.125 43.2253 321.504 43.396C319.883 43.4813 318.304 42.9267 316.768 41.732C313.611 39.0013 310.325 36.9107 306.912 35.46C303.584 34.0093 299.147 33.284 293.6 33.284C288.565 33.284 283.829 34.308 279.392 36.356C274.955 38.404 271.029 41.22 267.616 44.804C264.288 48.388 261.685 52.5693 259.808 57.348C257.931 62.0413 256.992 67.076 256.992 72.452C256.992 77.9133 257.931 83.0333 259.808 87.812C261.685 92.5053 264.288 96.644 267.616 100.228C271.029 103.812 274.955 106.628 279.392 108.676C283.829 110.639 288.565 111.62 293.6 111.62C297.952 111.62 302.048 110.895 305.888 109.444C309.813 107.908 313.568 105.817 317.152 103.172C318.688 102.063 320.181 101.593 321.632 101.764C323.168 101.849 324.448 102.447 325.472 103.556C326.496 104.58 327.008 106.031 327.008 107.908C327.008 108.761 326.837 109.615 326.496 110.468C326.155 111.236 325.643 111.961 324.96 112.644C320.352 116.313 315.403 119.087 310.112 120.964C304.907 122.841 299.403 123.78 293.6 123.78Z" fill="#3F3F3F"/>
<path d="M116 29C116 17.9543 124.954 9 136 9C147.046 9 156 17.9543 156 29C156 40.0457 147.046 49 136 49C124.954 49 116 40.0457 116 29Z" fill="#FF617B"/>
<path d="M116 29C116 17.9543 124.954 9 136 9C147.046 9 156 17.9543 156 29C156 40.0457 147.046 49 136 49C124.954 49 116 40.0457 116 29Z" fill="url(#paint0_linear_38_251)"/>
<path fill-rule="evenodd" clip-rule="evenodd" d="M61 11C54.3726 11 49 16.3726 49 23V83C49 89.6274 54.3726 95 61 95H66C89.196 95 108 76.196 108 53C108 29.804 89.196 11 66 11H61Z" fill="#FF617B"/>
<path fill-rule="evenodd" clip-rule="evenodd" d="M61 11C54.3726 11 49 16.3726 49 23V83C49 89.6274 54.3726 95 61 95H66C89.196 95 108 76.196 108 53C108 29.804 89.196 11 66 11H61Z" fill="url(#paint1_linear_38_251)"/>
<path fill-rule="evenodd" clip-rule="evenodd" d="M64 103V131C64 143.15 73.8497 153 86 153H130C142.15 153 152 143.15 152 131V87C152 74.8497 142.15 65 130 65H114.551C109.176 86.8186 89.4777 103 66 103H64Z" fill="#FF617B"/>
<path fill-rule="evenodd" clip-rule="evenodd" d="M64 103V131C64 143.15 73.8497 153 86 153H130C142.15 153 152 143.15 152 131V87C152 74.8497 142.15 65 130 65H114.551C109.176 86.8186 89.4777 103 66 103H64Z" fill="url(#paint2_linear_38_251)"/>
<path d="M9 25C9 16.1634 16.1634 9 25 9C33.8366 9 41 16.1634 41 25V137C41 145.837 33.8366 153 25 153C16.1634 153 9 145.837 9 137V25Z" fill="#FF617B"/>
<path d="M9 25C9 16.1634 16.1634 9 25 9C33.8366 9 41 16.1634 41 25V137C41 145.837 33.8366 153 25 153C16.1634 153 9 145.837 9 137V25Z" fill="url(#paint3_linear_38_251)"/>
<defs>
<linearGradient id="paint0_linear_38_251" x1="9" y1="-12.5" x2="167.5" y2="153" gradientUnits="userSpaceOnUse">
<stop stop-color="white" stop-opacity="0.5"/>
<stop offset="0.5" stop-color="white" stop-opacity="0"/>
</linearGradient>
<linearGradient id="paint1_linear_38_251" x1="9" y1="-12.5" x2="167.5" y2="153" gradientUnits="userSpaceOnUse">
<stop stop-color="white" stop-opacity="0.5"/>
<stop offset="0.5" stop-color="white" stop-opacity="0"/>
</linearGradient>
<linearGradient id="paint2_linear_38_251" x1="9" y1="-12.5" x2="167.5" y2="153" gradientUnits="userSpaceOnUse">
<stop stop-color="white" stop-opacity="0.5"/>
<stop offset="0.5" stop-color="white" stop-opacity="0"/>
</linearGradient>
<linearGradient id="paint3_linear_38_251" x1="9" y1="-12.5" x2="167.5" y2="153" gradientUnits="userSpaceOnUse">
<stop stop-color="white" stop-opacity="0.5"/>
<stop offset="0.5" stop-color="white" stop-opacity="0"/>
</linearGradient>
</defs>
</svg>
